<mxfile host="app.diagrams.net" modified="2024-02-26T13:44:37.464Z" agent="Mozilla/5.0 (Macintosh; Intel Mac OS X 10_15_7) AppleWebKit/537.36 (KHTML, like Gecko) Chrome/121.0.0.0 Safari/537.36" etag="oS05MV8QdIozwQDJuyNU" version="23.1.6" type="github">
  <diagram name="Page-1" id="sUTg5aXhMo1wFM-71KYS">
    <mxGraphModel dx="934" dy="561" grid="1" gridSize="10" guides="1" tooltips="1" connect="1" arrows="1" fold="1" page="1" pageScale="1" pageWidth="827" pageHeight="1169" math="0" shadow="0">
      <root>
        <mxCell id="0" />
        <mxCell id="1" parent="0" />
        <mxCell id="ZrnWOVKxjO8qNHRkse0v-1" value="" style="ellipse;whiteSpace=wrap;html=1;aspect=fixed;" vertex="1" parent="1">
          <mxGeometry x="120" y="160" width="180" height="180" as="geometry" />
        </mxCell>
        <mxCell id="ZrnWOVKxjO8qNHRkse0v-2" value="" style="ellipse;whiteSpace=wrap;html=1;aspect=fixed;" vertex="1" parent="1">
          <mxGeometry x="540" y="150" width="180" height="180" as="geometry" />
        </mxCell>
        <mxCell id="ZrnWOVKxjO8qNHRkse0v-3" value="Actor" style="shape=umlActor;verticalLabelPosition=bottom;verticalAlign=top;html=1;outlineConnect=0;" vertex="1" parent="1">
          <mxGeometry x="195" y="210" width="30" height="60" as="geometry" />
        </mxCell>
        <mxCell id="ZrnWOVKxjO8qNHRkse0v-4" value="Actor" style="shape=umlActor;verticalLabelPosition=bottom;verticalAlign=top;html=1;outlineConnect=0;" vertex="1" parent="1">
          <mxGeometry x="615" y="200" width="30" height="60" as="geometry" />
        </mxCell>
        <mxCell id="ZrnWOVKxjO8qNHRkse0v-5" value="TurnLeft()/right()" style="text;html=1;align=center;verticalAlign=middle;whiteSpace=wrap;rounded=0;" vertex="1" parent="1">
          <mxGeometry x="330" y="350" width="60" height="30" as="geometry" />
        </mxCell>
        <mxCell id="ZrnWOVKxjO8qNHRkse0v-6" value="walk(steps=1)&lt;div&gt;&lt;br/&gt;&lt;/div&gt;" style="text;html=1;align=center;verticalAlign=middle;whiteSpace=wrap;rounded=0;" vertex="1" parent="1">
          <mxGeometry x="320" y="390" width="60" height="30" as="geometry" />
        </mxCell>
        <mxCell id="ZrnWOVKxjO8qNHRkse0v-7" value="IsinsideBoundary()&lt;div&gt;&lt;br&gt;&lt;/div&gt;" style="text;html=1;align=center;verticalAlign=middle;whiteSpace=wrap;rounded=0;" vertex="1" parent="1">
          <mxGeometry x="330" y="430" width="60" height="30" as="geometry" />
        </mxCell>
        <mxCell id="ZrnWOVKxjO8qNHRkse0v-8" value="" style="shape=note;whiteSpace=wrap;html=1;backgroundOutline=1;fontColor=#000000;darkOpacity=0.05;fillColor=#FFF9B2;strokeColor=none;fillStyle=solid;direction=west;gradientDirection=north;gradientColor=#FFF2A1;shadow=1;size=20;pointerEvents=1;" vertex="1" parent="1">
          <mxGeometry x="570" y="400" width="140" height="160" as="geometry" />
        </mxCell>
        <mxCell id="ZrnWOVKxjO8qNHRkse0v-9" value="" style="curved=1;endArrow=classic;html=1;rounded=0;exitX=1;exitY=0.5;exitDx=0;exitDy=0;entryX=0;entryY=0.5;entryDx=0;entryDy=0;" edge="1" parent="1" source="ZrnWOVKxjO8qNHRkse0v-1" target="ZrnWOVKxjO8qNHRkse0v-2">
          <mxGeometry width="50" height="50" relative="1" as="geometry">
            <mxPoint x="390" y="320" as="sourcePoint" />
            <mxPoint x="440" y="270" as="targetPoint" />
            <Array as="points">
              <mxPoint x="440" y="320" />
              <mxPoint x="450" y="230" />
              <mxPoint x="400" y="220" />
              <mxPoint x="380" y="240" />
              <mxPoint x="390" y="270" />
            </Array>
          </mxGeometry>
        </mxCell>
        <mxCell id="ZrnWOVKxjO8qNHRkse0v-10" value="Vertical Container" style="swimlane;whiteSpace=wrap;html=1;" vertex="1" parent="1">
          <mxGeometry x="310" y="190" width="200" height="200" as="geometry" />
        </mxCell>
        <mxCell id="ZrnWOVKxjO8qNHRkse0v-11" value="jhkhkh&lt;br&gt;hkhk&lt;br&gt;jhk&lt;div&gt;&lt;br/&gt;&lt;/div&gt;" style="shape=callout;whiteSpace=wrap;html=1;perimeter=calloutPerimeter;" vertex="1" parent="1">
          <mxGeometry x="130" y="390" width="120" height="80" as="geometry" />
        </mxCell>
        <mxCell id="ZrnWOVKxjO8qNHRkse0v-12" value="" style="ellipse;shape=cloud;whiteSpace=wrap;html=1;" vertex="1" parent="1">
          <mxGeometry x="350" y="250" width="120" height="80" as="geometry" />
        </mxCell>
      </root>
    </mxGraphModel>
  </diagram>
</mxfile>
